<?xml version="1.0" encoding="UTF-8"?>
<svg version="1.1" xmlns="http://www.w3.org/2000/svg" width="500" height="500">
<path d="M0 0 C-0.66984044 3.29512161 -1.88804869 5.91505405 -3.484375 8.8671875 C-4.00169189 9.82560547 -4.51900879 10.78402344 -5.05200195 11.77148438 C-5.61234131 12.79564453 -6.17268066 13.81980469 -6.75 14.875 C-7.32258545 15.92751953 -7.8951709 16.98003906 -8.48510742 18.06445312 C-14.4000304 28.86134291 -20.6484461 39.4554465 -27 50 C-27.66926514 49.5447998 -28.33853027 49.08959961 -29.02807617 48.62060547 C-52.75487986 32.66169141 -80.76978022 24.74470593 -109.2890625 29.24609375 C-132.77066916 34.01656752 -153.23074229 46.13484415 -167.625 65.625 C-183.57056712 89.81166552 -192.02276527 117.93569805 -186.8125 146.875 C-182.69031383 164.76991099 -174.2871085 181.45619478 -158.625 191.875 C-138.96753583 203.39929176 -116.20007749 206.32380572 -94.05102539 201.05419922 C-79.49018828 197.19213889 -65.22189921 191.53227746 -51.35546875 185.6796875 C-48.72281396 184.92001597 -47.57061048 185.2473453 -45 186 C-43.42680762 192.19136965 -41.86099049 198.38457054 -40.30029297 204.57910156 C-39.76846337 206.68630194 -39.23494526 208.79307691 -38.69970703 210.89941406 C-37.93077669 213.92663145 -37.16792648 216.95532548 -36.40625 219.984375 C-36.16563843 220.92617615 -35.92502686 221.86797729 -35.67712402 222.83831787 C-35.45689575 223.71892883 -35.23666748 224.59953979 -35.00976562 225.50683594 C-34.81435181 226.27960876 -34.61893799 227.05238159 -34.41760254 227.84857178 C-34 230 -34 230 -34 234 C-78.95985742 254.75818158 -125.73799954 266.33979486 -174.01171875 248.9453125 C-202.0267011 238.32832243 -222.59476068 217.10987499 -235.18359375 190.2265625 C-238.51614672 182.71374832 -240.92973109 174.94358654 -243 167 C-243.17934082 166.32404785 -243.35868164 165.6480957 -243.54345703 164.95166016 C-252.99988112 127.19169862 -244.32478305 81.76540039 -224.65576172 48.74316406 C-218.28732975 38.44922285 -211.15791257 28.93370217 -203 20 C-202.22527344 19.14277344 -201.45054687 18.28554687 -200.65234375 17.40234375 C-147.59158057 -38.49305118 -62.92763883 -35.30290613 0 0 Z " fill="#FF8236" transform="translate(336,193)"/>
<path d="M0 0 C1.65594802 1.65594802 1.29013455 3.53092512 1.375 5.8125 C1.1628022 17.50293634 -5.90561612 27.80285434 -11.5625 37.6875 C-21.7564965 55.56860964 -28.88960921 71.24334585 -23.5 92.0625 C-21.51060463 98.27575656 -18.7104535 104.01856486 -15.64257812 109.76000977 C-13 114.71983917 -13 114.71983917 -13 118 C-13.55236328 118.20044922 -14.10472656 118.40089844 -14.67382812 118.60742188 C-26.84958084 123.0560606 -38.59165009 127.83375951 -50 134 C-51.01964844 134.54011719 -52.03929687 135.08023438 -53.08984375 135.63671875 C-66.10849826 142.85377152 -77.60946906 152.24233585 -88.328125 162.50390625 C-90.4852013 164.51906963 -92.62760061 166.2605143 -95 168 C-95.66148498 116.11583205 -94.52569738 55.32649722 -56.5625 15.0625 C-44.0384253 3.17898644 -16.57685939 -11.20058067 0 0 Z " fill="#FF8236" transform="translate(209,31)"/>
<path d="M0 0 C10.23 0 20.46 0 31 0 C31.04898438 2.35898437 31.09796875 4.71796875 31.1484375 7.1484375 C31.20242103 9.42877645 31.25973872 11.70900882 31.31738281 13.98925781 C31.35570585 15.57609138 31.39055288 17.16301281 31.421875 18.75 C31.46745431 21.02896566 31.52545838 23.30732468 31.5859375 25.5859375 C31.59748871 26.29744965 31.60903992 27.00896179 31.62094116 27.74203491 C31.63408239 31.82103657 31.63408239 31.82103657 34 35 C37.20538403 35.37346668 37.20538403 35.37346668 40.9765625 35.4140625 C41.66181 35.43342865 42.3470575 35.4527948 43.05307007 35.4727478 C45.24358644 35.53256831 47.4341553 35.57893756 49.625 35.625 C51.10939802 35.66317763 52.59377384 35.70222924 54.078125 35.7421875 C57.718635 35.83991931 61.35890615 35.91946358 65 36 C65 45.57 65 55.14 65 65 C53.78 65 42.56 65 31 65 C31 76.22 31 87.44 31 99 C20.77 99 10.54 99 0 99 C0 87.78 0 76.56 0 65 C-10.56 65 -21.12 65 -32 65 C-32 55.43 -32 45.86 -32 36 C-21.44 36 -10.88 36 0 36 C0 24.12 0 12.24 0 0 Z " fill="#FF8236" transform="translate(351,258)"/>
<path d="M0 0 C10.23 0 20.46 0 31 0 C31 11.88 31 23.76 31 36 C41.56 36 52.12 36 63 36 C63 45.57 63 55.14 63 65 C52.44 65 41.88 65 31 65 C31 76.22 31 87.44 31 99 C20.77 99 10.54 99 0 99 C0 87.78 0 76.56 0 65 C-11.22 65 -22.44 65 -34 65 C-34 55.43 -34 45.86 -34 36 C-31.70160156 35.93941406 -29.40320313 35.87882812 -27.03515625 35.81640625 C-24.81775476 35.75465995 -22.60040654 35.69125446 -20.38305664 35.62768555 C-18.83785711 35.58428015 -17.29260786 35.54260929 -15.74731445 35.50268555 C-13.53060904 35.44511801 -11.3141552 35.38138576 -9.09765625 35.31640625 C-8.4028566 35.29969376 -7.70805695 35.28298126 -6.99220276 35.26576233 C-3.71237971 35.43497144 -3.71237971 35.43497144 -1 34 C-0.84011509 31.48119483 -0.74065775 28.98657734 -0.68359375 26.46484375 C-0.66281265 25.71159317 -0.64203156 24.95834259 -0.62062073 24.18226624 C-0.55504575 21.7674401 -0.49620379 19.35250202 -0.4375 16.9375 C-0.3943223 15.30402471 -0.35070827 13.6705609 -0.30664062 12.03710938 C-0.19853203 8.02485282 -0.09951886 4.01251576 0 0 Z " fill="#FF8236" transform="translate(241,258)"/>
<path d="M0 0 C-1.18118287 5.60757437 -2.65038402 9.61238781 -5.875 14.4375 C-6.26067139 15.02313721 -6.64634277 15.60877441 -7.04370117 16.2121582 C-9.32090103 19.63489931 -11.6967385 22.977064 -14.12109375 26.296875 C-22.27878764 37.48101105 -29.00251346 47.36339864 -27.39160156 61.92529297 C-26.14064086 68.55288902 -23.27257786 74.81466496 -20.73876953 81.03173828 C-19.87908973 83.32213436 -19.34584887 85.57905793 -19 88 C-19.91652344 87.89171875 -19.91652344 87.89171875 -20.8515625 87.78125 C-42.67550469 85.56811783 -64.28118243 87.76837072 -86 90 C-84.93471077 81.09496558 -83.68391499 72.43045987 -81.375 63.75 C-80.9891272 62.29255371 -80.9891272 62.29255371 -80.59545898 60.80566406 C-76.79494268 47.03258398 -71.54977429 33.55129079 -63 22 C-62.31164062 21.06800781 -61.62328125 20.13601562 -60.9140625 19.17578125 C-51.34059157 6.86463354 -39.90576843 -1.63617424 -24.1875 -3.78515625 C-15.76439508 -4.35289004 -7.50803853 -4.11154491 0 0 Z " fill="#FF8236" transform="translate(295,55)"/>
</svg>
